<?xml version="1.0" encoding="utf-8"?>
<!-- Generator: Adobe Illustrator 16.0.0, SVG Export Plug-In . SVG Version: 6.00 Build 0)  -->
<!DOCTYPE svg PUBLIC "-//W3C//DTD SVG 1.1//EN" "http://www.w3.org/Graphics/SVG/1.1/DTD/svg11.dtd">
<svg version="1.1" id="Layer_1" xmlns="http://www.w3.org/2000/svg" xmlns:xlink="http://www.w3.org/1999/xlink" x="0px" y="0px"
	 width="435.721px" height="105px" viewBox="0 -9.879 435.721 105" enable-background="new 0 -9.879 435.721 105"
	 xml:space="preserve">
<g id="Layer_1_1_">
	<g>
		<path fill="#00CC49" d="M85.994,88.715c-2.287,0-3.711-0.257-3.771-0.268c-0.588-0.104-1.087-0.494-1.336-1.036
			c-0.249-0.543-0.215-1.177,0.091-1.688c2.077-3.49,6.646-13.574,3.588-19.232c-7.339-3.555-12.506-9.027-14.961-15.854
			c-0.008-0.021-0.015-0.044-0.023-0.067l-0.021-0.055c-2.456-6.827-1.958-14.338,1.436-21.754
			c-1.246-6.324-11.19-11.176-15.015-12.539c-0.562-0.2-0.99-0.666-1.143-1.24c-0.154-0.576-0.014-1.192,0.373-1.646
			c0.372-0.435,9.284-10.653,25.325-10.653c1.338,0,2.706,0.073,4.064,0.218c0.025,0.002,0.05,0.006,0.075,0.01
			c3.208,0.478,6.455,1.363,9.447,2.572c3.324-1.84,6.86-3.438,10.525-4.755c7.596-2.732,15.573-4.177,23.069-4.177
			c4.118,0,8.092,0.429,11.812,1.272c5.565,1.263,10.41,3.412,14.399,6.386c4.504,3.358,7.695,7.581,9.482,12.55
			c0.007,0.02,0.041,0.113,0.049,0.138c1.783,4.956,2.013,10.243,0.679,15.701c-1.18,4.833-3.547,9.574-7.033,14.094
			c-6.637,8.604-16.844,15.699-28.739,19.978c-3.664,1.317-7.409,2.339-11.143,3.037c-1.537,2.839-3.477,5.589-5.645,8
			c-0.017,0.019-0.034,0.05-0.052,0.067C102.226,87.283,91.538,88.715,85.994,88.715C85.995,88.715,85.995,88.715,85.994,88.715z"/>
		<path fill="#FFFFFF" d="M127.719-1.637c3.958,0,7.793,0.406,11.41,1.228c5.316,1.208,9.932,3.249,13.716,6.071
			c4.215,3.143,7.195,7.083,8.859,11.711c0.008,0.021,0.015,0.041,0.021,0.063c0.008,0.021,0.017,0.042,0.024,0.062
			c1.665,4.627,1.876,9.563,0.628,14.671c-1.12,4.585-3.377,9.1-6.707,13.416c-6.43,8.334-16.345,15.215-27.917,19.378
			c-3.866,1.392-7.793,2.435-11.722,3.115c-1.521,2.972-3.51,5.866-5.801,8.416c-8.858,9.058-19.034,10.384-24.236,10.384
			c-2.156,0-3.458-0.229-3.458-0.229s8.243-13.817,3.31-21.559c-7.101-3.311-12.189-8.55-14.533-15.067
			c-0.008-0.021-0.014-0.043-0.021-0.063c-0.008-0.021-0.016-0.042-0.024-0.062c-2.344-6.52-1.759-13.799,1.608-20.873
			c-1.128-9.108-16.284-14.512-16.284-14.512S65.148,4.495,80.538,4.495c1.246,0,2.538,0.065,3.873,0.208
			c3.389,0.506,6.768,1.471,9.833,2.792c3.463-1.976,7.156-3.673,11.021-5.063C112.759-0.264,120.444-1.637,127.719-1.637
			 M127.72-5.263c-7.703,0-15.893,1.479-23.683,4.283C100.556,0.271,97.188,1.771,94,3.484c-2.897-1.101-5.993-1.912-9.053-2.368
			c-0.051-0.008-0.101-0.014-0.151-0.021c-1.422-0.15-2.854-0.229-4.256-0.229c-16.868,0-26.311,10.828-26.705,11.289
			c-0.775,0.907-1.054,2.138-0.747,3.29c0.308,1.152,1.163,2.081,2.287,2.48c3.203,1.151,12.181,5.455,13.715,10.655
			c-1.563,3.572-2.495,7.201-2.775,10.805c-0.317,4.065,0.202,8.015,1.541,11.737c0.008,0.022,0.016,0.041,0.023,0.062
			c0.008,0.023,0.016,0.047,0.024,0.069c1.337,3.717,3.453,7.092,6.286,10.024c2.51,2.598,5.539,4.8,9.016,6.559
			c0.944,2.248,0.738,5.68-0.61,9.809c-1.304,3.99-3.154,7.112-3.172,7.146c-0.612,1.024-0.68,2.284-0.182,3.368
			c0.497,1.086,1.496,1.855,2.671,2.063c0.166,0.028,1.683,0.282,4.084,0.282c5.829,0,17.064-1.491,26.829-11.476
			c0.036-0.037,0.071-0.072,0.104-0.111c2.069-2.301,3.939-4.898,5.471-7.592c3.55-0.709,7.101-1.699,10.582-2.951
			c12.216-4.395,22.715-11.701,29.561-20.576c3.642-4.72,6.118-9.688,7.359-14.771c1.419-5.81,1.171-11.447-0.737-16.755
			c-0.008-0.021-0.016-0.043-0.024-0.064c-0.008-0.022-0.016-0.046-0.024-0.07c-1.907-5.304-5.307-9.809-10.103-13.385
			c-4.192-3.125-9.267-5.38-15.081-6.699C136.081-4.821,131.972-5.263,127.72-5.263L127.72-5.263z"/>
	</g>
	<path fill="#FFFFFF" d="M107.617,8.976c21.429-7.706,42.791-2.858,47.714,10.829c4.922,13.688-8.458,31.032-29.887,38.738
		c-4.771,1.717-9.539,2.809-14.123,3.32c-2.434,6.705-9.292,17.274-19.295,18.254c1.831-4.276,4.302-11.279,0.149-19.854
		c-7.032-2.3-12.3-6.585-14.445-12.549C72.808,34.026,86.188,16.682,107.617,8.976"/>
	<g>
		<g>
			<circle fill="#0066CC" cx="119.196" cy="41.17" r="5.477"/>
		</g>
		<g>
			<circle fill="#0066CC" cx="137.117" cy="34.724" r="5.477"/>
		</g>
		<g>
			<circle fill="#0066CC" cx="101.274" cy="47.615" r="5.477"/>
		</g>
	</g>
	<g>
		<path fill="#CCCCCC" d="M124.272,55.283c-4.771,1.716-9.513,2.881-14.048,3.527c-2.368,5.313-8.261,13.428-16.418,16.142
			c-0.484,1.997-1.167,3.733-1.779,5.165c10.003-0.979,16.861-11.549,19.296-18.254c4.583-0.512,9.351-1.604,14.123-3.32
			c21.256-7.644,34.591-24.772,29.998-38.408C159.387,31.966,145.528,47.637,124.272,55.283z"/>
	</g>
</g>
<text transform="matrix(1 0 0 1 179.3604 71.8203)" fill="#F4F4F4" font-family="'Impact'" font-size="68">IU CHAT</text>
</svg>
